<svg width="108" height="37" viewBox="0 0 108 37" fill="none" xmlns="http://www.w3.org/2000/svg">
<path opacity="0.8" d="M47.26 27.24C46.14 27.24 45.0667 27.0933 44.04 26.8C43.0133 26.4933 42.1867 26.1 41.56 25.62L42.66 23.18C43.26 23.6067 43.9667 23.96 44.78 24.24C45.6067 24.5067 46.44 24.64 47.28 24.64C47.92 24.64 48.4333 24.58 48.82 24.46C49.22 24.3267 49.5133 24.1467 49.7 23.92C49.8867 23.6933 49.98 23.4333 49.98 23.14C49.98 22.7667 49.8333 22.4733 49.54 22.26C49.2467 22.0333 48.86 21.8533 48.38 21.72C47.9 21.5733 47.3667 21.44 46.78 21.32C46.2067 21.1867 45.6267 21.0267 45.04 20.84C44.4667 20.6533 43.94 20.4133 43.46 20.12C42.98 19.8267 42.5867 19.44 42.28 18.96C41.9867 18.48 41.84 17.8667 41.84 17.12C41.84 16.32 42.0533 15.5933 42.48 14.94C42.92 14.2733 43.5733 13.7467 44.44 13.36C45.32 12.96 46.42 12.76 47.74 12.76C48.62 12.76 49.4867 12.8667 50.34 13.08C51.1933 13.28 51.9467 13.5867 52.6 14L51.6 16.46C50.9467 16.0867 50.2933 15.8133 49.64 15.64C48.9867 15.4533 48.3467 15.36 47.72 15.36C47.0933 15.36 46.58 15.4333 46.18 15.58C45.78 15.7267 45.4933 15.92 45.32 16.16C45.1467 16.3867 45.06 16.6533 45.06 16.96C45.06 17.32 45.2067 17.6133 45.5 17.84C45.7933 18.0533 46.18 18.2267 46.66 18.36C47.14 18.4933 47.6667 18.6267 48.24 18.76C48.8267 18.8933 49.4067 19.0467 49.98 19.22C50.5667 19.3933 51.1 19.6267 51.58 19.92C52.06 20.2133 52.4467 20.6 52.74 21.08C53.0467 21.56 53.2 22.1667 53.2 22.9C53.2 23.6867 52.98 24.4067 52.54 25.06C52.1 25.7133 51.44 26.24 50.56 26.64C49.6933 27.04 48.5933 27.24 47.26 27.24ZM55.1939 27V16.24H58.3139V27H55.1939ZM56.7539 14.74C56.1806 14.74 55.7139 14.5733 55.3539 14.24C54.9939 13.9067 54.8139 13.4933 54.8139 13C54.8139 12.5067 54.9939 12.0933 55.3539 11.76C55.7139 11.4267 56.1806 11.26 56.7539 11.26C57.3272 11.26 57.7939 11.42 58.1539 11.74C58.5139 12.0467 58.6939 12.4467 58.6939 12.94C58.6939 13.46 58.5139 13.8933 58.1539 14.24C57.8072 14.5733 57.3406 14.74 56.7539 14.74ZM65.6095 27.16C64.3429 27.16 63.3562 26.84 62.6495 26.2C61.9429 25.5467 61.5895 24.58 61.5895 23.3V13.86H64.7095V23.26C64.7095 23.7133 64.8295 24.0667 65.0695 24.32C65.3095 24.56 65.6362 24.68 66.0495 24.68C66.5429 24.68 66.9629 24.5467 67.3095 24.28L68.1495 26.48C67.8295 26.7067 67.4429 26.88 66.9895 27C66.5495 27.1067 66.0895 27.16 65.6095 27.16ZM59.9295 18.88V16.48H67.3895V18.88H59.9295ZM74.6889 27.16C73.5422 27.16 72.5222 26.92 71.6289 26.44C70.7489 25.96 70.0489 25.3067 69.5289 24.48C69.0222 23.64 68.7689 22.6867 68.7689 21.62C68.7689 20.54 69.0222 19.5867 69.5289 18.76C70.0489 17.92 70.7489 17.2667 71.6289 16.8C72.5222 16.32 73.5422 16.08 74.6889 16.08C75.8222 16.08 76.8356 16.32 77.7289 16.8C78.6222 17.2667 79.3222 17.9133 79.8289 18.74C80.3356 19.5667 80.5889 20.5267 80.5889 21.62C80.5889 22.6867 80.3356 23.64 79.8289 24.48C79.3222 25.3067 78.6222 25.96 77.7289 26.44C76.8356 26.92 75.8222 27.16 74.6889 27.16ZM74.6889 24.6C75.2089 24.6 75.6756 24.48 76.0889 24.24C76.5022 24 76.8289 23.66 77.0689 23.22C77.3089 22.7667 77.4289 22.2333 77.4289 21.62C77.4289 20.9933 77.3089 20.46 77.0689 20.02C76.8289 19.58 76.5022 19.24 76.0889 19C75.6756 18.76 75.2089 18.64 74.6889 18.64C74.1689 18.64 73.7022 18.76 73.2889 19C72.8756 19.24 72.5422 19.58 72.2889 20.02C72.0489 20.46 71.9289 20.9933 71.9289 21.62C71.9289 22.2333 72.0489 22.7667 72.2889 23.22C72.5422 23.66 72.8756 24 73.2889 24.24C73.7022 24.48 74.1689 24.6 74.6889 24.6Z" fill="white"/>
<g clip-path="url(#clip0_2_955)">
<path d="M20.2107 0.539326C16.7919 -0.368329 13.166 -0.132153 9.89685 1.21112C6.62773 2.55438 3.89871 4.92944 2.13429 7.96684C0.369871 11.0042 -0.331025 14.5337 0.140625 18.0062C0.612276 21.4787 2.23003 24.6996 4.74225 27.1678V27.1678L22.6286 9.4656C23.2974 8.80315 23.7782 7.97812 24.0229 7.07343C24.2675 6.16874 24.2673 5.21625 24.0223 4.31167C23.7773 3.40708 23.296 2.58226 22.627 1.92009C21.9579 1.25791 21.1246 0.781711 20.2107 0.539326V0.539326Z" fill="url(#paint0_linear_2_955)"/>
<path d="M6.78875 36.4601C10.2096 37.3707 13.8386 37.1359 17.1107 35.7925C20.3827 34.449 23.1142 32.0723 24.8796 29.0323C26.6451 25.9923 27.3455 22.4597 26.8717 18.9847C26.398 15.5097 24.7767 12.2873 22.2603 9.81934L4.37394 27.5338C3.70514 28.196 3.22416 29.0208 2.97933 29.9253C2.7345 30.8298 2.73443 31.7822 2.97913 32.6867C3.22383 33.5913 3.70469 34.4161 4.3734 35.0785C5.0421 35.7408 5.87512 36.2173 6.78875 36.4601V36.4601Z" fill="url(#paint1_linear_2_955)"/>
<path style="mix-blend-mode:multiply" d="M22.2603 9.81934L4.37394 27.5338C3.70514 28.196 3.22416 29.0208 2.97933 29.9253C2.7345 30.8298 2.73443 31.7822 2.97913 32.6867C3.22383 33.5913 3.70469 34.4161 4.3734 35.0785C5.0421 35.7408 5.87512 36.2173 6.78875 36.4601C8.70142 36.965 10.6917 37.1169 12.6599 36.9081C4.81723 29.4393 22.2603 9.81934 22.2603 9.81934Z" fill="url(#paint2_linear_2_955)"/>
<g style="mix-blend-mode:multiply">
<path style="mix-blend-mode:multiply" d="M6.46017 36.3617C3.92136 28.58 19.1697 12.9092 21.8604 10.2273L4.37395 27.5336C3.72563 28.1755 3.25344 28.9705 3.00202 29.8433C2.7506 30.7162 2.72826 31.6381 2.93711 32.5219C3.14597 33.4057 3.57912 34.2222 4.19559 34.8941C4.81207 35.566 5.5915 36.0711 6.46017 36.3617V36.3617Z" fill="url(#paint3_linear_2_955)"/>
<path style="mix-blend-mode:multiply" d="M22.2014 9.88984C22.22 9.86941 22.2396 9.84995 22.2603 9.83154V9.83154L22.2014 9.88984Z" fill="url(#paint4_linear_2_955)"/>
</g>
<path style="mix-blend-mode:screen" d="M23.9404 7.3645L4.72113 27.1563L22.6292 9.46643C23.2273 8.87775 23.6766 8.15757 23.9404 7.3645V7.3645Z" fill="url(#paint5_radial_2_955)"/>
</g>
<defs>
<linearGradient id="paint0_linear_2_955" x1="16.4102" y1="-16.6934" x2="10.5876" y2="20.6654" gradientUnits="userSpaceOnUse">
<stop stop-color="#0096D9"/>
<stop offset="1" stop-color="#DF006B"/>
</linearGradient>
<linearGradient id="paint1_linear_2_955" x1="9.13537" y1="13.6181" x2="18.5045" y2="32.4248" gradientUnits="userSpaceOnUse">
<stop stop-color="#DF006B"/>
<stop offset="1" stop-color="#00B2AB"/>
</linearGradient>
<linearGradient id="paint2_linear_2_955" x1="23.8071" y1="-3.42432" x2="6.08252" y2="38.1714" gradientUnits="userSpaceOnUse">
<stop stop-color="#3482C0"/>
<stop offset="0.45" stop-color="#96BEDE"/>
<stop offset="0.83" stop-color="#E1EDF6"/>
<stop offset="1" stop-color="white"/>
</linearGradient>
<linearGradient id="paint3_linear_2_955" x1="1361.37" y1="132.275" x2="-132.261" y2="2238.51" gradientUnits="userSpaceOnUse">
<stop stop-color="#3482C0"/>
<stop offset="0.45" stop-color="#96BEDE"/>
<stop offset="0.83" stop-color="#E1EDF6"/>
<stop offset="1" stop-color="white"/>
</linearGradient>
<linearGradient id="paint4_linear_2_955" x1="25.6732" y1="3.26808" x2="10.5951" y2="32.7125" gradientUnits="userSpaceOnUse">
<stop stop-color="#569FA1"/>
<stop offset="0.36" stop-color="#97C4C5"/>
<stop offset="0.8" stop-color="#E2EEEF"/>
<stop offset="1" stop-color="white"/>
</linearGradient>
<radialGradient id="paint5_radial_2_955" cx="0" cy="0" r="1" gradientUnits="userSpaceOnUse" gradientTransform="translate(21.5938 32.382) scale(27.8184 27.5367)">
<stop stop-color="#FFFF00"/>
<stop offset="1"/>
</radialGradient>
<clipPath id="clip0_2_955">
<rect width="27" height="37" fill="white"/>
</clipPath>
</defs>
</svg>
